<?xml version="1.0" encoding="utf-8"?>
<!-- Generator: Adobe Illustrator 25.0.0, SVG Export Plug-In . SVG Version: 6.00 Build 0)  -->
<svg version="1.1" id="Layer_1" xmlns="http://www.w3.org/2000/svg" xmlns:xlink="http://www.w3.org/1999/xlink" x="0px" y="0px"
	 viewBox="0 0 150 150" style="enable-background:new 0 0 150 150;" xml:space="preserve">
<style type="text/css">
	.st0{fill:#C59E5E;}
</style>
<g>
	<path class="st0" d="M69.8,73.8c-2.8-0.1-6.4-1.3-9.6-2.4c-3.3-1.1-6.1-2-8.3-2c-5.1,0-7.5,5.2-7.6,5.4c-0.4,1,0,2.2,1,2.6
		c1,0.5,2.2,0,2.6-1c0,0,1.4-3,4-3c1.5,0,4.3,0.9,7,1.8c3.4,1.1,7.4,2.4,10.7,2.6c0,0,0.1,0,0.1,0c1.1,0,1.9-0.8,2-1.9
		C71.8,74.8,70.9,73.9,69.8,73.8z"/>
	<path class="st0" d="M100.2,69.5c-2.2,0-5,0.9-8.3,2c-3.2,1-6.9,2.2-9.6,2.4c-1.1,0.1-2,1-1.9,2.1c0.1,1.1,0.9,1.9,2,1.9
		c0,0,0.1,0,0.1,0c3.3-0.2,7.2-1.4,10.7-2.6c2.7-0.9,5.5-1.8,7-1.8c2.5,0,4,3,4,3c0.5,1,1.6,1.5,2.6,1c1-0.5,1.5-1.6,1-2.6
		C107.7,74.6,105.3,69.5,100.2,69.5z"/>
	<path class="st0" d="M124.5,66.4c-2.8-2-5.7-1-7.9,0.6c-0.1-9.6-0.4-17.5-0.7-19.3c-0.7-4-3.2-6.5-5-7.8c3.2-3.1,5.3-7.2,5.3-12.4
		c0-5.8-1.8-10.4-5.4-13.9c-6.6-6.4-19.2-9.2-38.6-8.7c-20.2,0.6-32,7.6-38.4,13.3c-7.1,6.5-10.4,14-10.4,18.2
		c0,7.1,4,13.8,9.9,16.8c-0.3,2.7-0.5,7.6-0.5,13.4c-2.2-1.4-4.8-2.1-7.4-0.3c-5.2,3.7-0.9,24.6-0.8,24.8c1.3,5.5,2.5,6.8,4,7.1
		c0.5,0.1,1.1,0.1,1.6,0.1c1.2,0,2.4-0.2,3.4-0.3c0.3,5.6,0.6,9.7,0.9,10.7c1.4,4.4,25.7,32.9,29,34.9c1.5,0.9,6.7,1.6,12,1.6
		c5.5,0,11.1-0.7,13.1-2.6c2.7-2.6,25-29.8,26.7-33.5c0.5-1,0.8-5.3,1-11.1c1,0.2,2.1,0.3,3.3,0.3c0.6,0,1.1,0,1.6-0.1
		c1.5-0.3,2.7-1.5,4-7.1C125.4,91,129.7,70.1,124.5,66.4z M72.4,8.8c1.5,0,2.9-0.1,4.3-0.1c15.6,0,26.2,2.6,31.4,7.6
		c2.8,2.8,4.1,6.3,4.1,11c0,9.9-9.5,13.6-14.3,14.9c2.7-5.2,2.5-12.8,0.9-17.4c-3.6-10.6-18.8-14.3-42.8-10.6
		c-1.1,0.2-1.8,1.2-1.7,2.3c0.2,1.1,1.2,1.8,2.3,1.7c21.5-3.4,35.5-0.5,38.4,7.9c1.3,3.8,1.4,10.5-0.7,14.4c-0.8,1.5-1.8,2.4-3,2.7
		c0,0,0,0-0.1,0c-3.4,0.3-7.6,0.4-12,0.5c-5.8-0.4-6.8-3.3-8.8-9.1c-0.2-0.7-0.5-1.4-0.7-2.2c-3-8.3-13.3-11.2-21.5-9.7
		c-4.6,0.8-14.8,4.2-20.1,10.4C30.8,25.8,41.6,9.7,72.4,8.8z M29.1,43.1c0-0.1,0-0.2,0-0.3c-0.6-3.9,1.7-7.6,6.7-10.8
		c4.5-2.9,9.9-4.6,13.3-5.2c6.6-1.2,14.8,1.1,17,7.2c0.3,0.7,0.5,1.4,0.7,2.1c1,2.9,2,5.7,3.8,7.9c-7.8,0-14.1-0.1-14.2-0.1
		c-2.4-0.1-3.4-1.2-4.7-2.6c-1.3-1.4-2.9-3.2-6.1-3.2c-0.1,0-0.1,0-0.2,0c-7.8,0-10.2,6.6-11.2,11C32,47.6,30.3,45.5,29.1,43.1z
		 M29.8,94.3c-0.7-1.4-1.9-6.1-2.6-12.3c-0.8-7.8-0.1-11.8,0.5-12.4c1.9-1.3,4.5,1.6,5.2,2.5c0.1,7.2,0.3,15.2,0.5,21.8
		C32.4,94.2,31,94.4,29.8,94.3z M86,139.7c-1,0.9-4.8,1.4-8.9,1.5v-8.7l3.5-2.5c0.9-0.7,1.1-1.9,0.4-2.8c-0.7-0.9-1.9-1.1-2.8-0.4
		l-3.1,2.2l-3.1-2.2c-0.9-0.6-2.1-0.5-2.8,0.4c-0.7,0.9-0.5,2.1,0.4,2.8l3.4,2.5v8.8c-3.5-0.1-6.5-0.5-7.4-1c-1-0.7-4.6-4.6-8.8-9.4
		c2.1-3.5,2.2-9.9,1.8-12.8c-0.4-2.8,0-4.6,0.5-5.1c0.8-0.2,3.5,0,5.3,0.2c3.3,0.3,6.4,0.6,8.3-0.2c1-0.4,1.8-1.1,2.5-1.8
		c0.6,0.7,1.4,1.4,2.5,1.8c1.8,0.8,5,0.5,8.3,0.2c1.8-0.2,4.5-0.4,5.3-0.2c0.4,0.4,0.8,2.2,0.5,5.1c-0.4,2.9-0.4,9.5,1.9,13
		C89.9,135.4,87,138.9,86,139.7z M96.3,127.6c-0.7-2.1-1.1-5.9-0.7-9.1c0.3-2.5,0.5-7.1-2.2-9c-1.4-1-3.8-0.8-7.9-0.4
		c-2.2,0.2-5.4,0.5-6.3,0.1c-1.6-0.7-2-2.8-2-2.8c-0.1-1.1-1.1-1.8-2.2-1.7c-1,0-1.8,0.7-1.9,1.7c0,0-0.3,2.2-2,2.9
		c-0.9,0.4-4.2,0.1-6.3-0.1c-4.1-0.4-6.4-0.6-7.9,0.4c-2.8,1.9-2.6,6.4-2.2,9c0.4,3.1,0,6.7-0.7,8.9c-7.1-8.4-15-18-15.6-19.9
		c-0.4-1.2-0.7-5.8-0.9-11.9c0-0.1,0-0.2,0-0.3c-0.6-15.4-0.8-39.9,0-42.4c0.1-0.1,0.1-0.3,0.1-0.4l0.1-0.3
		c0.8-4.9,2.1-10.1,7.7-10.1c0,0,0.1,0,0.1,0c1.3,0,2,0.6,3.2,1.9c1.4,1.5,3.4,3.6,7.5,3.9c0.8,0,12.2,0.2,23.1,0c0.1,0,0.1,0,0.2,0
		c0,0,0.1,0,0.1,0c0.1,0,0.2,0,0.3,0c7.1-0.2,13.8-0.5,17.3-1.2c3.6-0.7,7.3-2.1,10.5-4.1c0.7,0.4,3.8,2.2,4.4,5.8
		c0.8,5.1,1,55.4-0.1,59.1C111,109.2,103.2,119.2,96.3,127.6z M122.7,82c-0.6,6.2-1.8,10.9-2.6,12.3c-1.1,0.1-2.5-0.1-3.6-0.4
		c0.1-6.5,0.2-14.1,0.1-21.4c0.1-0.1,0.2-0.2,0.2-0.2c0,0,3.1-4.3,5.3-2.7C122.8,70.3,123.5,74.2,122.7,82z"/>
	<path class="st0" d="M87.2,116.6H63.1c-1.1,0-2,0.9-2,2s0.9,2,2,2h24.1c1.1,0,2-0.9,2-2S88.3,116.6,87.2,116.6z"/>
</g>
</svg>
