<?xml version="1.0" encoding="utf-8"?>
<!-- Generator: Adobe Illustrator 25.0.0, SVG Export Plug-In . SVG Version: 6.00 Build 0)  -->
<svg version="1.1" id="Layer_1" xmlns="http://www.w3.org/2000/svg" xmlns:xlink="http://www.w3.org/1999/xlink" x="0px" y="0px"
	 viewBox="0 0 150 150" style="enable-background:new 0 0 150 150;" xml:space="preserve">
<style type="text/css">
	.st0{fill:#C59E5E;}
</style>
<g>
	<path class="st0" d="M115.2,35.5c-2.9,0-5.3,2.4-5.3,5.3s2.4,5.3,5.3,5.3s5.3-2.4,5.3-5.3S118.1,35.5,115.2,35.5z"/>
	<path class="st0" d="M138.8,30.8H135c1.7-4.8,1.4-10.4-2.9-14.2c-3.1-2.7-7.8-3.9-11.8-3c-2.9,0.6-5.1,2.3-6.2,4.7
		c-0.1,0.1-2.5,5.1-6.7,12.6h-89C11,30.8,5,36.8,5,44.1s6,13.3,13.3,13.3h45.1c4.7,0,8.5-1.5,12.2-3c3.4-1.4,6.7-2.6,10.5-2.6h8.2
		C89.4,59.1,83.7,66.8,77.4,74C55.7,98.9,29.2,115.8,29,116c-2.3,1.5-3.7,4-3.9,7c-0.3,4,1.6,8.3,4.7,11c2.2,1.9,4.6,2.7,7,2.7
		c3.7,0,7.4-1.8,10.2-3.5c0.3-0.2,25.9-15.8,49.5-43c10.5-12,20.1-26.9,27-38.3h15.3c3.4,0,6.2-2.8,6.2-6.2V37
		C145,33.6,142.2,30.8,138.8,30.8z M86.1,47.9c-4.5,0-8.3,1.5-11.9,2.9c-3.5,1.4-6.8,2.7-10.7,2.7H18.3c-5.1,0-9.3-4.2-9.3-9.3
		s4.2-9.3,9.3-9.3h86.7c-2.3,3.9-5,8.4-8.1,13H86.1z M93.5,87.6c-23.2,26.7-48.3,42-48.6,42.2c-5.7,3.4-9.6,3.8-12.5,1.2
		c-2.2-1.9-3.5-5.1-3.4-7.8c0.1-1.8,0.8-3.1,2.1-3.9c0.3-0.2,27.2-17.4,49.3-42.7c22.1-25.3,37.1-56.3,37.3-56.6
		c0.7-1.6,2.3-2.2,3.4-2.5c0.6-0.1,1.2-0.2,1.8-0.2c2.3,0,4.8,0.9,6.5,2.3c3.9,3.4,2.8,8.8,0.6,12.3c0,0,0,0.1-0.1,0.1
		C129.8,32.4,113.1,65.1,93.5,87.6z M141,45.7c0,1.2-1,2.2-2.2,2.2h-13c3.7-6.3,6.2-11.1,7.2-13h5.7c1.2,0,2.2,1,2.2,2.2V45.7z"/>
</g>
</svg>
