<?xml version="1.0" encoding="utf-8"?>
<!-- Generator: Adobe Illustrator 25.0.0, SVG Export Plug-In . SVG Version: 6.00 Build 0)  -->
<svg version="1.1" id="Layer_1" xmlns="http://www.w3.org/2000/svg" xmlns:xlink="http://www.w3.org/1999/xlink" x="0px" y="0px"
	 viewBox="0 0 150 150" style="enable-background:new 0 0 150 150;" xml:space="preserve">
<style type="text/css">
	.st0{fill:#C59E5E;}
</style>
<path class="st0" d="M135.5,63.7h-12.1c-3.1,0-5.6,2.5-5.6,5.6V78c0,0.1,0,0.2,0,0.3v14.8c0,3.8-3.1,6.9-6.9,6.9h0
	c0.1-0.4,0.2-0.8,0.2-1.2v-8.7c0-2.9-2.3-5.2-5.2-5.2H78.3v-5H94c6.7,0,11.6-5.4,13.5-14.7c0-0.1,0-0.1,0-0.2l3.9-33
	c0.4-5.6-1.6-10.9-5.5-15.1c-4.3-4.6-10.4-7.3-16.8-7.3H63.5c-6.4,0-12.6,2.7-16.9,7.4c-3.9,4.2-5.8,9.6-5.3,15.1l3.9,33
	C46.7,74.3,51.9,80,58.7,80h15.6v5H46.8c-2.9,0-5.2,2.3-5.2,5.2v8.7c0,0.4,0.1,0.8,0.2,1.2h-2.7c-3.8,0-6.9-3.1-6.9-6.9V77.6
	c0-0.1,0-0.2,0-0.3v-8.1c0-3.1-2.5-5.6-5.6-5.6H14.5c-3.1,0-5.6,2.5-5.6,5.6v9.2c0,3.1,2.5,5.6,5.6,5.6h12.1c0.6,0,1.1-0.1,1.6-0.2
	v9.4c0,6,4.9,10.9,10.9,10.9h7.3c0.1,0,0.3,0,0.4,0c0,0,0,0,0,0h27.5v10.6H54.6c-0.9-3.6-4.2-6.3-8.1-6.3c-4.6,0-8.3,3.7-8.3,8.3
	s3.7,8.3,8.3,8.3c3.9,0,7.2-2.7,8.1-6.3h19.7v3.6c-9,0.7-16.6,6.3-19,13.9H49c-1.1,0-2,0.9-2,2s0.9,2,2,2h7.7c0.1,0,0.2,0,0.3,0
	h38.3c0.1,0,0.3,0,0.4,0c0.1,0,0.3,0,0.4,0c0,0,0,0,0,0h7.4c1.1,0,2-0.9,2-2s-0.9-2-2-2h-6.3c-2.4-7.6-10-13.2-19-13.9v-18.3h27
	c0.1,0,0.2,0,0.4,0h5.2c6,0,10.9-4.9,10.9-10.9v-9.4c0.5,0.2,1.1,0.2,1.6,0.2h12.1c3.1,0,5.6-2.5,5.6-5.6v-9.2
	C141.1,66.2,138.6,63.7,135.5,63.7z M49.1,64.6l-3.9-32.8c-0.3-4.4,1.2-8.7,4.3-12c3.5-3.8,8.7-6.1,14-6.1h25.7
	c5.3,0,10.3,2.2,13.9,6c3.2,3.4,4.7,7.7,4.4,12l-3.9,32.8C102.9,68.1,100.5,76,94,76H58.7C51.6,76,49.6,67.2,49.1,64.6z M28.2,78.4
	c0,0.9-0.7,1.6-1.6,1.6H14.5c-0.9,0-1.6-0.7-1.6-1.6v-9.2c0-0.9,0.7-1.6,1.6-1.6h12.1c0.9,0,1.6,0.7,1.6,1.6V78.4z M46.5,121
	c-2.4,0-4.3-1.9-4.3-4.3s1.9-4.3,4.3-4.3s4.3,1.9,4.3,4.3S48.9,121,46.5,121z M93.1,136.2H59.6c2.5-5.9,9.1-10,16.7-10
	C83.9,126.2,90.6,130.3,93.1,136.2z M45.6,90.2c0-0.6,0.5-1.2,1.2-1.2h59c0.6,0,1.2,0.5,1.2,1.2v8.7c0,0.6-0.5,1.2-1.2,1.2h-59
	c-0.6,0-1.2-0.5-1.2-1.2V90.2z M137.1,78.4c0,0.9-0.7,1.6-1.6,1.6h-12.1c-0.9,0-1.6-0.7-1.6-1.6v-9.2c0-0.9,0.7-1.6,1.6-1.6h12.1
	c0.9,0,1.6,0.7,1.6,1.6V78.4z"/>
</svg>
