<?xml version="1.0" encoding="utf-8"?>
<!-- Generator: Adobe Illustrator 25.0.0, SVG Export Plug-In . SVG Version: 6.00 Build 0)  -->
<svg version="1.1" id="Layer_1" xmlns="http://www.w3.org/2000/svg" xmlns:xlink="http://www.w3.org/1999/xlink" x="0px" y="0px"
	 viewBox="0 0 150 150" style="enable-background:new 0 0 150 150;" xml:space="preserve">
<style type="text/css">
	.st0{fill:#C59E5E;}
</style>
<g>
	<path class="st0" d="M61.9,74.9c0,1.6,1.3,2.9,2.9,2.9c1.6,0,2.9-1.3,2.9-2.9c0-1.6-1.3-2.9-2.9-2.9C63.2,72,61.9,73.3,61.9,74.9z
		 M65.9,74.9c0,0.6-0.5,1.1-1.1,1.1s-1.1-0.5-1.1-1.1s0.5-1.1,1.1-1.1S65.9,74.3,65.9,74.9z"/>
	<path class="st0" d="M27.4,101.7c-5.8,0-10.6,4.7-10.6,10.6c0,5.8,4.7,10.6,10.6,10.6S38,118.1,38,112.3
		C38,106.4,33.3,101.7,27.4,101.7z M27.4,118.8c-3.6,0-6.6-2.9-6.6-6.6s3-6.6,6.6-6.6s6.6,3,6.6,6.6S31.1,118.8,27.4,118.8z"/>
	<path class="st0" d="M108.2,101.7c-5.8,0-10.6,4.7-10.6,10.6c0,5.8,4.7,10.6,10.6,10.6s10.6-4.7,10.6-10.6
		C118.8,106.4,114.1,101.7,108.2,101.7z M108.2,118.8c-3.6,0-6.6-2.9-6.6-6.6s3-6.6,6.6-6.6s6.6,3,6.6,6.6S111.9,118.8,108.2,118.8z
		"/>
	<path class="st0" d="M142.3,117.5c-0.8-0.8-2.1-0.7-2.8,0.1c-4.3,4.7-7.5,7.5-13.8,5.2c1.9-3.1,3-6.7,3-10.6
		c0-11.3-9.2-20.4-20.4-20.4c-7.1,0-13.3,3.6-17,9.1L70.3,80c-0.8-0.8-2-0.8-2.8,0l-4.6,4.6L27.1,32.7l62.4,57.2
		c0.8,0.7,2.1,0.7,2.8-0.1c0.7-0.8,0.7-2.1-0.1-2.8l-9.7-8.9l39.7-57.6c0.6-0.8,0.4-2-0.3-2.6c-0.8-0.7-1.9-0.7-2.7,0L68,64.8
		L16.8,17.8c-0.8-0.7-1.9-0.7-2.7,0s-0.9,1.8-0.3,2.6l39.7,57.6l-16.8,16c-2.8-1.4-5.9-2.2-9.3-2.2C16.2,91.8,7,101,7,112.3
		c0,11.3,9.2,20.4,20.4,20.4s20.4-9.2,20.4-20.4c0-2.7-0.5-5.2-1.5-7.5l10.4-10c0.8-0.8,0.8-2,0.1-2.8c-0.8-0.8-2-0.8-2.8-0.1
		l-9.6,9.2c-1.2-1.8-2.6-3.4-4.3-4.7l15.7-14.9l5.1,7.5c0.3,0.5,0.9,0.8,1.5,0.9c0.6,0,1.2-0.2,1.6-0.6l4.9-4.9l20.4,20.4
		c-0.9,2.3-1.5,4.9-1.5,7.6c0,11.3,9.2,20.4,20.4,20.4c5.9,0,11.2-2.5,14.9-6.5c2.5,1,4.7,1.5,6.6,1.5c5.9,0,9.5-3.9,12.6-7.3
		C143.2,119.5,143.1,118.3,142.3,117.5z M108.9,32.7L79.5,75.3L71,67.5L108.9,32.7z M27.4,128.7c-9.1,0-16.4-7.4-16.4-16.4
		c0-9.1,7.4-16.4,16.4-16.4c6.2,0,11.5,3.4,14.3,8.4c-0.1,0.6,0.1,1.1,0.5,1.6c0.1,0.1,0.2,0.2,0.4,0.3c0.8,1.9,1.2,3.9,1.2,6.1
		C43.9,121.3,36.5,128.7,27.4,128.7z M108.2,128.7c-9,0-16.4-7.4-16.4-16.4c0-9.1,7.4-16.4,16.4-16.4s16.4,7.4,16.4,16.4
		C124.7,121.3,117.3,128.7,108.2,128.7z"/>
</g>
</svg>
