<?xml version="1.0" encoding="utf-8"?>
<!-- Generator: Adobe Illustrator 25.0.0, SVG Export Plug-In . SVG Version: 6.00 Build 0)  -->
<svg version="1.1" id="Layer_1" xmlns="http://www.w3.org/2000/svg" xmlns:xlink="http://www.w3.org/1999/xlink" x="0px" y="0px"
	 viewBox="0 0 150 150" style="enable-background:new 0 0 150 150;" xml:space="preserve">
<style type="text/css">
	.st0{fill:#C59E5E;}
</style>
<path class="st0" d="M146.1,47.3c-0.2-0.8-0.9-1.3-1.7-1.4c-0.8-0.1-1.6,0.3-2,1c-6,10.5-11.2,16-16.2,17c-5,1-9.6-2.7-15-7
	c-5.8-4.6-12.3-9.8-20.8-10c-7.9-0.2-13,3.7-15.5,7.2c-2.6-3.5-7.6-7.4-15.6-7.2c-8.4,0.2-15,5.4-20.7,10c-5.4,4.3-10.1,8-15,7
	c-4.9-1-10.2-6.5-16.2-17c-0.4-0.7-1.2-1.1-2-1c-0.8,0.1-1.5,0.6-1.7,1.4c-11.4,37.1,13.8,50.3,21.8,53.4c5.7,2.2,12.1,3.4,18.3,3.4
	c3.8,0,7.7-0.4,11.3-1.3c8.7-2.1,15.6-6.5,19.7-12.5c4.1,6,11,10.4,19.7,12.5c3.6,0.9,7.5,1.3,11.3,1.3c6.3,0,12.6-1.1,18.3-3.4
	C132.3,97.6,157.5,84.4,146.1,47.3z M122.9,97c-17.8,7-38.9,1.9-45.8-10.9c0-0.7-0.4-1.3-1.1-1.7c-0.3-0.2-0.6-0.2-1-0.2
	c-0.3,0-0.7,0-1,0.2c-0.7,0.3-1.1,1-1.1,1.7C66,98.9,44.9,104,27.1,97C9.2,90,1.7,73.7,6.5,53c5.7,9,11,13.8,16.4,14.8
	c6.8,1.3,12.3-3.1,18.3-7.8c5.5-4.4,11.3-8.9,18.4-9.1c10.2-0.3,13.4,7.5,13.5,7.8c0.3,0.8,1.2,1.3,2,1.3c0.8,0,1.6-0.5,1.9-1.3
	c0.1-0.3,3.3-8.1,13.5-7.8c7.1,0.2,12.8,4.7,18.4,9.1c5.9,4.7,11.5,9.1,18.3,7.8c5.4-1.1,10.7-5.8,16.4-14.8
	C148.3,73.7,140.8,90,122.9,97z"/>
</svg>
