<?xml version="1.0" encoding="utf-8"?>
<!-- Generator: Adobe Illustrator 25.0.0, SVG Export Plug-In . SVG Version: 6.00 Build 0)  -->
<svg version="1.1" id="Layer_1" xmlns="http://www.w3.org/2000/svg" xmlns:xlink="http://www.w3.org/1999/xlink" x="0px" y="0px"
	 viewBox="0 0 150 150" style="enable-background:new 0 0 150 150;" xml:space="preserve">
<style type="text/css">
	.st0{fill:#C59E5E;}
</style>
<g>
	<path class="st0" d="M67.4,79.4l-5.7,5.7c-0.1,0.1-0.2,0.2-0.3,0.3c0,0,0,0,0,0c-0.8,0.8-0.8,2-0.1,2.8c1.3,1.4,2.1,3.2,2.1,5.2
		c0,4.1-3.3,7.5-7.5,7.5s-7.5-3.3-7.5-7.5c0-3.2,2-6.1,5.1-7.1c1-0.3,1.6-1.5,1.3-2.5c-0.3-1-1.5-1.6-2.5-1.3
		c-4.7,1.6-7.8,5.9-7.8,10.9c0,2.5,0.8,4.8,2.2,6.7l-8.5,8.5c-0.8,0.8-0.8,2,0,2.8c0.4,0.4,0.9,0.6,1.4,0.6s1-0.2,1.4-0.6l8.5-8.5
		c1.8,1.2,4,2,6.4,2c6.3,0,11.5-5.1,11.5-11.5c0-2.3-0.7-4.5-2-6.4l4.7-4.7c0.8-0.8,0.8-2,0-2.8C69.4,78.6,68.2,78.6,67.4,79.4z"/>
	<path class="st0" d="M100.1,25.4c0.4,0.4,0.9,0.6,1.4,0.6s1-0.2,1.4-0.6l6.7-6.7c0.8-0.8,0.8-2,0-2.8c-0.8-0.8-2-0.8-2.8,0
		l-6.7,6.7C99.3,23.4,99.3,24.6,100.1,25.4z"/>
	<path class="st0" d="M106.3,31.6c0.4,0.4,0.9,0.6,1.4,0.6s1-0.2,1.4-0.6l6.7-6.7c0.8-0.8,0.8-2,0-2.8c-0.8-0.8-2-0.8-2.8,0
		l-6.7,6.7C105.5,29.5,105.5,30.8,106.3,31.6z"/>
	<path class="st0" d="M112.4,37.7c0.4,0.4,0.9,0.6,1.4,0.6s1-0.2,1.4-0.6l6.7-6.7c0.8-0.8,0.8-2,0-2.8c-0.8-0.8-2-0.8-2.8,0
		l-6.7,6.7C111.6,35.7,111.6,36.9,112.4,37.7z"/>
	<path class="st0" d="M118.6,43.9c0.4,0.4,0.9,0.6,1.4,0.6s1-0.2,1.4-0.6l6.7-6.7c0.8-0.8,0.8-2,0-2.8c-0.8-0.8-2-0.8-2.8,0
		l-6.7,6.7C117.8,41.8,117.8,43.1,118.6,43.9z"/>
	<path class="st0" d="M124.7,50c0.4,0.4,0.9,0.6,1.4,0.6s1-0.2,1.4-0.6l6.7-6.7c0.8-0.8,0.8-2,0-2.8c-0.8-0.8-2-0.8-2.8,0l-6.7,6.7
		C123.9,48,123.9,49.2,124.7,50z"/>
	<path class="st0" d="M140.1,46.9c-0.8-0.8-2-0.8-2.8,0l-18.5,18.4c-0.3-2.2-1.2-4.3-2.9-5.9L90.5,34c-1.6-1.6-3.7-2.6-5.8-2.9
		l18.5-18.2c0.8-0.8,0.8-2,0-2.8c-0.8-0.8-2-0.8-2.8,0L76,34c0,0,0,0,0,0l0,0l0,0c0,0,0,0,0,0l-63.4,69.7c-4,4-4.4,10-1,13.4
		l21.1,21.1c1.6,1.6,3.6,2.3,5.8,2.3c2.6,0,5.4-1.1,7.5-3.2l69.8-63.5c0,0,0,0,0,0l24.2-24C140.9,49,140.9,47.7,140.1,46.9z
		 M43.3,134.4c-1.2,1.2-2.7,2-4.3,2.1c-1.4,0.1-2.6-0.3-3.5-1.1l-21.1-21.1c-0.8-0.8-1.2-2.1-1.1-3.5c0.1-1.5,0.9-3.1,2.2-4.3
		l63.4-69.7l0.1-0.1c1.2-1.2,2.8-1.8,4.3-1.8c1.6,0,3.2,0.6,4.4,1.8l25.4,25.4c2.4,2.4,2.4,6.3,0.1,8.7l0,0L43.3,134.4z"/>
</g>
</svg>
